<?xml version="1.0" encoding="utf-8"?>
<!-- Generator: Adobe Illustrator 18.0.0, SVG Export Plug-In . SVG Version: 6.00 Build 0)  -->
<!DOCTYPE svg PUBLIC "-//W3C//DTD SVG 1.1//EN" "http://www.w3.org/Graphics/SVG/1.1/DTD/svg11.dtd">
<svg version="1.1" id="Layer_1" xmlns="http://www.w3.org/2000/svg" xmlns:xlink="http://www.w3.org/1999/xlink" x="0px" y="0px"
	 viewBox="0 0 344 460" enable-background="new 0 0 344 460" xml:space="preserve">
<g>
	<g>
		<path fill="#B5CDE3" d="M338.2,57.2c0.1-0.6,0.2-1.2,0.2-1.8c0-20.3-77.5-49.9-164.2-49.9C87.5,5.5,5.6,33.6,5.6,53.9
			c0,0.6,0.1,1.2,0.2,1.8l47.8,334.4h0.1c0,0.5-0.1,1-0.1,1.5c0,34.8,54,63,120.6,63c66.6,0,120.6-28.2,120.6-63
			c0-0.5-0.1-1-0.1-1.5h0.1L338.2,57.2z"/>
		<path fill="#FBDE34" d="M58.2,196.6L84,387.5c0,0,7.8,13.9,12.1,16.2c12.9,6.7,38.1,18.6,78.2,17.9c53.5-0.9,85.3-20.3,85.3-20.3
			l8.6-13.4l25.1-199.6L58.2,196.6z"/>
		<path fill="#FFFFFF" d="M47.2,102.6c3.7-6.9,10.1-16.4,17.5-20.9c7.4-4.5,53.6-19.3,113.5-18.8C238,63.4,285,80.5,291.9,88.1
			c6.9,7.6,12.5,22.3,12.5,22.3l-11.1,77.9c0,0-10.6,7.3-22.8,11.3c-12.2,4-46.4,0.8-56.5,5.2c-10.1,4.3-38.7,19.8-38.7,19.8
			s-25.9,20.7-53.2,14.7c-17.3-3.7-35.1-34.7-47.3-35.6c-9.5-0.7-15.6-3.9-15.6-3.9S43.5,109.5,47.2,102.6z"/>
		<path fill="#FFFFFF" d="M126.6,269.1c0,11-11.3,19.9-25.2,19.9c-13.9,0-25.2-8.9-25.2-19.9c0-11,11.3-19.9,25.2-19.9
			C115.4,249.3,126.6,258.1,126.6,269.1z"/>
		<path fill="#FFFFFF" d="M121.3,294.8c0,5.6-5.6,10.2-12.6,10.2c-7,0-12.6-4.6-12.6-10.2c0-5.6,5.6-10.2,12.6-10.2
			C115.7,284.6,121.3,289.2,121.3,294.8z"/>
	</g>
	<g>
		<path fill="#343433" d="M90.3,380.6l19-11.5c3.7,6.5,7,12,15,12c7.7,0,12.5-3,12.5-14.6v-79.2H160v79.5
			c0,24.1-14.1,35.1-34.8,35.1C106.6,401.9,95.8,392.2,90.3,380.6"/>
		<path fill="#343433" d="M172.7,378.1l19-11c5,8.2,11.5,14.1,23,14.1c9.6,0,15.8-4.8,15.8-11.5c0-8-6.3-10.8-17-15.5l-5.8-2.5
			c-16.8-7.1-27.9-16.1-27.9-35.1c0-17.5,13.3-30.8,34.1-30.8c14.8,0,25.5,5.2,33.1,18.6l-18.1,11.6c-4-7.1-8.3-10-15-10
			c-6.8,0-11.1,4.3-11.1,10c0,7,4.3,9.8,14.3,14.1l5.8,2.5c19.8,8.5,30.9,17.1,30.9,36.6c0,21-16.5,32.4-38.6,32.4
			C193.5,401.9,179.5,391.6,172.7,378.1"/>
	</g>
</g>
</svg>
